<mxfile host="app.diagrams.net" modified="2023-02-17T16:21:35.560Z" agent="5.0 (Windows)" etag="tcbOwN6lXTR_U4ZTEEe4" version="20.8.20" type="github">
  <diagram id="vqC2mFW4HvGlkNuLK0up" name="Page-1">
    <mxGraphModel dx="2887" dy="943" grid="1" gridSize="10" guides="1" tooltips="1" connect="1" arrows="1" fold="1" page="1" pageScale="1" pageWidth="1169" pageHeight="1654" math="0" shadow="0">
      <root>
        <mxCell id="0" />
        <mxCell id="1" parent="0" />
        <mxCell id="XFr-2iS9YjRfgRAXZtEG-104" value="Système" style="swimlane;strokeWidth=1;startSize=23;fillColor=#eeeeee;strokeColor=#36393d;gradientColor=none;swimlaneFillColor=default;" parent="1" vertex="1">
          <mxGeometry x="-130" y="280" width="745" height="2690" as="geometry" />
        </mxCell>
        <mxCell id="-LpXlav8uHPvm0gaR7sH-255" value="Afficher la liste de livres" style="strokeWidth=2;html=1;shape=mxgraph.flowchart.terminator;whiteSpace=wrap;" parent="XFr-2iS9YjRfgRAXZtEG-104" vertex="1">
          <mxGeometry x="353" y="105" width="100" height="60" as="geometry" />
        </mxCell>
        <mxCell id="SMSk38Dg5xrXoP6J3pRU-22" style="edgeStyle=orthogonalEdgeStyle;rounded=0;orthogonalLoop=1;jettySize=auto;html=1;exitX=0.5;exitY=1;exitDx=0;exitDy=0;exitPerimeter=0;" parent="XFr-2iS9YjRfgRAXZtEG-104" source="SMSk38Dg5xrXoP6J3pRU-20" edge="1">
          <mxGeometry relative="1" as="geometry">
            <mxPoint x="429.76470588235316" y="557" as="targetPoint" />
          </mxGeometry>
        </mxCell>
        <mxCell id="SMSk38Dg5xrXoP6J3pRU-20" value="Vérifier les données" style="strokeWidth=2;html=1;shape=mxgraph.flowchart.terminator;whiteSpace=wrap;" parent="XFr-2iS9YjRfgRAXZtEG-104" vertex="1">
          <mxGeometry x="379.45" y="455" width="100" height="60" as="geometry" />
        </mxCell>
        <mxCell id="SMSk38Dg5xrXoP6J3pRU-23" value="" style="line;strokeWidth=8;fillColor=none;align=left;verticalAlign=middle;spacingTop=-1;spacingLeft=3;spacingRight=3;rotatable=0;labelPosition=right;points=[];portConstraint=eastwest;" parent="XFr-2iS9YjRfgRAXZtEG-104" vertex="1">
          <mxGeometry x="130" y="557" width="530" height="8" as="geometry" />
        </mxCell>
        <mxCell id="SMSk38Dg5xrXoP6J3pRU-24" value="Afficher la liste des écrivains" style="strokeWidth=2;html=1;shape=mxgraph.flowchart.terminator;whiteSpace=wrap;" parent="XFr-2iS9YjRfgRAXZtEG-104" vertex="1">
          <mxGeometry x="150" y="597" width="110" height="60" as="geometry" />
        </mxCell>
        <mxCell id="SMSk38Dg5xrXoP6J3pRU-25" value="Afficher la liste des catégories" style="strokeWidth=2;html=1;shape=mxgraph.flowchart.terminator;whiteSpace=wrap;" parent="XFr-2iS9YjRfgRAXZtEG-104" vertex="1">
          <mxGeometry x="343" y="597" width="110" height="60" as="geometry" />
        </mxCell>
        <mxCell id="SMSk38Dg5xrXoP6J3pRU-27" value="Afficher la liste des types de livres" style="strokeWidth=2;html=1;shape=mxgraph.flowchart.terminator;whiteSpace=wrap;" parent="XFr-2iS9YjRfgRAXZtEG-104" vertex="1">
          <mxGeometry x="520" y="597" width="100" height="63" as="geometry" />
        </mxCell>
        <mxCell id="SMSk38Dg5xrXoP6J3pRU-31" style="edgeStyle=orthogonalEdgeStyle;rounded=0;orthogonalLoop=1;jettySize=auto;html=1;" parent="XFr-2iS9YjRfgRAXZtEG-104" edge="1">
          <mxGeometry relative="1" as="geometry">
            <mxPoint x="204.92000000000002" y="595" as="targetPoint" />
            <mxPoint x="204.92000000000002" y="565" as="sourcePoint" />
            <Array as="points">
              <mxPoint x="204.92000000000002" y="595" />
            </Array>
          </mxGeometry>
        </mxCell>
        <mxCell id="SMSk38Dg5xrXoP6J3pRU-85" value="" style="line;strokeWidth=8;fillColor=none;align=left;verticalAlign=middle;spacingTop=-1;spacingLeft=3;spacingRight=3;rotatable=0;labelPosition=right;points=[];portConstraint=eastwest;" parent="XFr-2iS9YjRfgRAXZtEG-104" vertex="1">
          <mxGeometry x="50" y="1234" width="310" height="8" as="geometry" />
        </mxCell>
        <mxCell id="SMSk38Dg5xrXoP6J3pRU-90" value="Afficher la liste des séries" style="strokeWidth=2;html=1;shape=mxgraph.flowchart.terminator;whiteSpace=wrap;" parent="XFr-2iS9YjRfgRAXZtEG-104" vertex="1">
          <mxGeometry x="60" y="1283" width="110" height="60" as="geometry" />
        </mxCell>
        <mxCell id="SMSk38Dg5xrXoP6J3pRU-89" value="Afficher la liste des univers" style="strokeWidth=2;html=1;shape=mxgraph.flowchart.terminator;whiteSpace=wrap;" parent="XFr-2iS9YjRfgRAXZtEG-104" vertex="1">
          <mxGeometry x="220" y="1283" width="110" height="60" as="geometry" />
        </mxCell>
        <mxCell id="SMSk38Dg5xrXoP6J3pRU-91" style="edgeStyle=orthogonalEdgeStyle;rounded=0;orthogonalLoop=1;jettySize=auto;html=1;entryX=0.5;entryY=0;entryDx=0;entryDy=0;" parent="XFr-2iS9YjRfgRAXZtEG-104" edge="1">
          <mxGeometry relative="1" as="geometry">
            <mxPoint x="119.48000000000002" y="1243" as="sourcePoint" />
            <mxPoint x="119.48000000000002" y="1282" as="targetPoint" />
            <Array as="points">
              <mxPoint x="119" y="1253" />
              <mxPoint x="119" y="1253" />
            </Array>
          </mxGeometry>
        </mxCell>
        <mxCell id="SMSk38Dg5xrXoP6J3pRU-131" value="" style="line;strokeWidth=8;fillColor=none;align=left;verticalAlign=middle;spacingTop=-1;spacingLeft=3;spacingRight=3;rotatable=0;labelPosition=right;points=[];portConstraint=eastwest;" parent="XFr-2iS9YjRfgRAXZtEG-104" vertex="1">
          <mxGeometry x="30" y="1926" width="430" height="8" as="geometry" />
        </mxCell>
        <mxCell id="SMSk38Dg5xrXoP6J3pRU-28" value="Afficher la liste des maisons d&#39;éditions" style="strokeWidth=2;html=1;shape=mxgraph.flowchart.terminator;whiteSpace=wrap;" parent="XFr-2iS9YjRfgRAXZtEG-104" vertex="1">
          <mxGeometry x="160" y="1964" width="110" height="60" as="geometry" />
        </mxCell>
        <mxCell id="SMSk38Dg5xrXoP6J3pRU-26" value="Afficher la liste des formats" style="strokeWidth=2;html=1;shape=mxgraph.flowchart.terminator;whiteSpace=wrap;" parent="XFr-2iS9YjRfgRAXZtEG-104" vertex="1">
          <mxGeometry x="300" y="1965" width="110" height="60" as="geometry" />
        </mxCell>
        <mxCell id="SMSk38Dg5xrXoP6J3pRU-132" style="edgeStyle=orthogonalEdgeStyle;rounded=0;orthogonalLoop=1;jettySize=auto;html=1;entryX=0.5;entryY=0;entryDx=0;entryDy=0;" parent="XFr-2iS9YjRfgRAXZtEG-104" edge="1">
          <mxGeometry relative="1" as="geometry">
            <mxPoint x="210" y="1934" as="sourcePoint" />
            <mxPoint x="210" y="1964" as="targetPoint" />
            <Array as="points">
              <mxPoint x="210" y="1954" />
              <mxPoint x="210" y="1954" />
            </Array>
          </mxGeometry>
        </mxCell>
        <mxCell id="SMSk38Dg5xrXoP6J3pRU-150" style="edgeStyle=orthogonalEdgeStyle;rounded=0;orthogonalLoop=1;jettySize=auto;html=1;exitX=0.5;exitY=1;exitDx=0;exitDy=0;exitPerimeter=0;" parent="XFr-2iS9YjRfgRAXZtEG-104" source="SMSk38Dg5xrXoP6J3pRU-149" edge="1">
          <mxGeometry relative="1" as="geometry">
            <mxPoint x="195" y="1234" as="targetPoint" />
            <mxPoint x="135" y="1194" as="sourcePoint" />
            <Array as="points">
              <mxPoint x="195" y="1234" />
            </Array>
          </mxGeometry>
        </mxCell>
        <mxCell id="SMSk38Dg5xrXoP6J3pRU-149" value="Vérifier les données" style="strokeWidth=2;html=1;shape=mxgraph.flowchart.terminator;whiteSpace=wrap;" parent="XFr-2iS9YjRfgRAXZtEG-104" vertex="1">
          <mxGeometry x="140" y="1130" width="110" height="60" as="geometry" />
        </mxCell>
        <mxCell id="SMSk38Dg5xrXoP6J3pRU-152" style="edgeStyle=orthogonalEdgeStyle;rounded=0;orthogonalLoop=1;jettySize=auto;html=1;exitX=0.5;exitY=1;exitDx=0;exitDy=0;exitPerimeter=0;" parent="XFr-2iS9YjRfgRAXZtEG-104" source="SMSk38Dg5xrXoP6J3pRU-151" edge="1">
          <mxGeometry relative="1" as="geometry">
            <mxPoint x="264" y="1926" as="targetPoint" />
            <mxPoint x="264" y="1876" as="sourcePoint" />
          </mxGeometry>
        </mxCell>
        <mxCell id="SMSk38Dg5xrXoP6J3pRU-151" value="Vérifier les données" style="strokeWidth=2;html=1;shape=mxgraph.flowchart.terminator;whiteSpace=wrap;" parent="XFr-2iS9YjRfgRAXZtEG-104" vertex="1">
          <mxGeometry x="209" y="1810" width="110" height="60" as="geometry" />
        </mxCell>
        <mxCell id="SMSk38Dg5xrXoP6J3pRU-156" style="edgeStyle=orthogonalEdgeStyle;rounded=0;orthogonalLoop=1;jettySize=auto;html=1;" parent="XFr-2iS9YjRfgRAXZtEG-104" edge="1">
          <mxGeometry relative="1" as="geometry">
            <mxPoint x="94" y="1927" as="targetPoint" />
            <mxPoint x="94" y="1850" as="sourcePoint" />
            <Array as="points">
              <mxPoint x="94" y="1917" />
              <mxPoint x="94" y="1917" />
            </Array>
          </mxGeometry>
        </mxCell>
        <mxCell id="SMSk38Dg5xrXoP6J3pRU-153" value="Vérifier les données" style="strokeWidth=2;html=1;shape=mxgraph.flowchart.terminator;whiteSpace=wrap;" parent="XFr-2iS9YjRfgRAXZtEG-104" vertex="1">
          <mxGeometry x="39" y="1790" width="110" height="60" as="geometry" />
        </mxCell>
        <mxCell id="SMSk38Dg5xrXoP6J3pRU-161" style="edgeStyle=orthogonalEdgeStyle;rounded=0;orthogonalLoop=1;jettySize=auto;html=1;" parent="XFr-2iS9YjRfgRAXZtEG-104" source="SMSk38Dg5xrXoP6J3pRU-158" edge="1">
          <mxGeometry relative="1" as="geometry">
            <mxPoint x="415" y="2310" as="targetPoint" />
          </mxGeometry>
        </mxCell>
        <mxCell id="SMSk38Dg5xrXoP6J3pRU-158" value="Vérifier les données" style="strokeWidth=2;html=1;shape=mxgraph.flowchart.terminator;whiteSpace=wrap;" parent="XFr-2iS9YjRfgRAXZtEG-104" vertex="1">
          <mxGeometry x="360" y="2220" width="110" height="60" as="geometry" />
        </mxCell>
        <mxCell id="SMSk38Dg5xrXoP6J3pRU-160" value="Vérifier si cette version existe" style="strokeWidth=2;html=1;shape=mxgraph.flowchart.terminator;whiteSpace=wrap;" parent="XFr-2iS9YjRfgRAXZtEG-104" vertex="1">
          <mxGeometry x="353" y="2310" width="110" height="60" as="geometry" />
        </mxCell>
        <mxCell id="SMSk38Dg5xrXoP6J3pRU-180" value="" style="shape=rhombus;perimeter=rhombusPerimeter;whiteSpace=wrap;html=1;align=center;fillColor=#ffff88;strokeColor=#36393d;" parent="XFr-2iS9YjRfgRAXZtEG-104" vertex="1">
          <mxGeometry x="350.13" y="2400" width="120" height="60" as="geometry" />
        </mxCell>
        <mxCell id="SMSk38Dg5xrXoP6J3pRU-181" style="edgeStyle=orthogonalEdgeStyle;rounded=0;orthogonalLoop=1;jettySize=auto;html=1;entryX=0.5;entryY=0;entryDx=0;entryDy=0;" parent="XFr-2iS9YjRfgRAXZtEG-104" target="SMSk38Dg5xrXoP6J3pRU-180" edge="1">
          <mxGeometry relative="1" as="geometry">
            <mxPoint x="410.13" y="2370" as="sourcePoint" />
          </mxGeometry>
        </mxCell>
        <mxCell id="SMSk38Dg5xrXoP6J3pRU-182" value="Oui" style="text;html=1;align=center;verticalAlign=middle;resizable=0;points=[];autosize=1;strokeColor=none;fillColor=none;" parent="XFr-2iS9YjRfgRAXZtEG-104" vertex="1">
          <mxGeometry x="464.13" y="2396" width="30" height="20" as="geometry" />
        </mxCell>
        <mxCell id="SMSk38Dg5xrXoP6J3pRU-183" style="edgeStyle=orthogonalEdgeStyle;rounded=0;orthogonalLoop=1;jettySize=auto;html=1;endArrow=classic;endFill=1;strokeColor=#00CC00;exitX=1;exitY=0.5;exitDx=0;exitDy=0;" parent="XFr-2iS9YjRfgRAXZtEG-104" edge="1">
          <mxGeometry relative="1" as="geometry">
            <mxPoint x="524.38" y="2502" as="targetPoint" />
            <Array as="points">
              <mxPoint x="524.38" y="2430" />
              <mxPoint x="524.38" y="2502" />
            </Array>
            <mxPoint x="471.13" y="2430" as="sourcePoint" />
          </mxGeometry>
        </mxCell>
        <mxCell id="SMSk38Dg5xrXoP6J3pRU-185" value="Non" style="text;html=1;align=center;verticalAlign=middle;resizable=0;points=[];autosize=1;strokeColor=none;fillColor=none;" parent="XFr-2iS9YjRfgRAXZtEG-104" vertex="1">
          <mxGeometry x="322.88" y="2387" width="40" height="20" as="geometry" />
        </mxCell>
        <mxCell id="SMSk38Dg5xrXoP6J3pRU-187" style="edgeStyle=orthogonalEdgeStyle;rounded=0;orthogonalLoop=1;jettySize=auto;html=1;endArrow=classic;endFill=1;strokeColor=#FF8000;exitX=0;exitY=0.5;exitDx=0;exitDy=0;entryX=0.062;entryY=0.208;entryDx=0;entryDy=0;entryPerimeter=0;" parent="XFr-2iS9YjRfgRAXZtEG-104" target="SMSk38Dg5xrXoP6J3pRU-131" edge="1">
          <mxGeometry relative="1" as="geometry">
            <mxPoint x="349.63" y="2430" as="sourcePoint" />
            <mxPoint x="30" y="1957.3333333333333" as="targetPoint" />
            <Array as="points">
              <mxPoint x="20" y="2430" />
              <mxPoint x="20" y="1890" />
              <mxPoint x="57" y="1890" />
            </Array>
          </mxGeometry>
        </mxCell>
        <mxCell id="SMSk38Dg5xrXoP6J3pRU-190" value="Enregistrer les données dans une base de donnée" style="strokeWidth=2;html=1;shape=mxgraph.flowchart.terminator;whiteSpace=wrap;" parent="XFr-2iS9YjRfgRAXZtEG-104" vertex="1">
          <mxGeometry x="479.45" y="2500" width="100" height="70" as="geometry" />
        </mxCell>
        <mxCell id="XFr-2iS9YjRfgRAXZtEG-103" value="Utilisateur" style="swimlane;strokeWidth=1;startSize=23;fillColor=#f9f7ed;strokeColor=#36393d;swimlaneFillColor=default;" parent="1" vertex="1">
          <mxGeometry x="630" y="280" width="1000" height="2690" as="geometry" />
        </mxCell>
        <mxCell id="-LpXlav8uHPvm0gaR7sH-252" value="" style="ellipse;html=1;shape=startState;fillColor=#000000;strokeColor=#ff0000;" parent="XFr-2iS9YjRfgRAXZtEG-103" vertex="1">
          <mxGeometry x="176" y="40" width="30" height="30" as="geometry" />
        </mxCell>
        <mxCell id="-LpXlav8uHPvm0gaR7sH-254" value="Aller sur la page de création de la version du livre" style="strokeWidth=2;html=1;shape=mxgraph.flowchart.terminator;whiteSpace=wrap;" parent="XFr-2iS9YjRfgRAXZtEG-103" vertex="1">
          <mxGeometry x="141" y="100" width="100" height="70" as="geometry" />
        </mxCell>
        <mxCell id="-LpXlav8uHPvm0gaR7sH-253" value="" style="edgeStyle=orthogonalEdgeStyle;html=1;verticalAlign=bottom;endArrow=open;endSize=8;strokeColor=#ff0000;rounded=0;entryX=0.5;entryY=0;entryDx=0;entryDy=0;entryPerimeter=0;" parent="XFr-2iS9YjRfgRAXZtEG-103" source="-LpXlav8uHPvm0gaR7sH-252" target="-LpXlav8uHPvm0gaR7sH-254" edge="1">
          <mxGeometry relative="1" as="geometry">
            <mxPoint x="-14" y="90" as="targetPoint" />
          </mxGeometry>
        </mxCell>
        <mxCell id="-LpXlav8uHPvm0gaR7sH-261" style="edgeStyle=orthogonalEdgeStyle;rounded=0;orthogonalLoop=1;jettySize=auto;html=1;exitX=0.5;exitY=1;exitDx=0;exitDy=0;exitPerimeter=0;" parent="XFr-2iS9YjRfgRAXZtEG-103" edge="1">
          <mxGeometry relative="1" as="geometry">
            <mxPoint x="328" y="180" as="sourcePoint" />
            <mxPoint x="328" y="180" as="targetPoint" />
          </mxGeometry>
        </mxCell>
        <mxCell id="SMSk38Dg5xrXoP6J3pRU-1" value="Vérifier si le livre existe" style="strokeWidth=2;html=1;shape=mxgraph.flowchart.terminator;whiteSpace=wrap;" parent="XFr-2iS9YjRfgRAXZtEG-103" vertex="1">
          <mxGeometry x="141" y="195" width="109" height="70" as="geometry" />
        </mxCell>
        <mxCell id="SMSk38Dg5xrXoP6J3pRU-6" style="edgeStyle=orthogonalEdgeStyle;rounded=0;orthogonalLoop=1;jettySize=auto;html=1;exitX=0.5;exitY=1;exitDx=0;exitDy=0;exitPerimeter=0;entryX=0.5;entryY=0;entryDx=0;entryDy=0;entryPerimeter=0;" parent="XFr-2iS9YjRfgRAXZtEG-103" target="SMSk38Dg5xrXoP6J3pRU-1" edge="1">
          <mxGeometry relative="1" as="geometry">
            <mxPoint x="195" y="170" as="sourcePoint" />
          </mxGeometry>
        </mxCell>
        <mxCell id="SMSk38Dg5xrXoP6J3pRU-13" value="" style="shape=rhombus;perimeter=rhombusPerimeter;whiteSpace=wrap;html=1;align=center;fillColor=#ffff88;strokeColor=#36393d;" parent="XFr-2iS9YjRfgRAXZtEG-103" vertex="1">
          <mxGeometry x="136.5" y="293" width="120" height="60" as="geometry" />
        </mxCell>
        <mxCell id="SMSk38Dg5xrXoP6J3pRU-14" value="" style="edgeStyle=orthogonalEdgeStyle;rounded=0;orthogonalLoop=1;jettySize=auto;html=1;exitX=0.5;exitY=1;exitDx=0;exitDy=0;exitPerimeter=0;entryX=0.5;entryY=0;entryDx=0;entryDy=0;entryPerimeter=0;startArrow=none;endArrow=classic;endFill=1;" parent="XFr-2iS9YjRfgRAXZtEG-103" target="SMSk38Dg5xrXoP6J3pRU-13" edge="1">
          <mxGeometry relative="1" as="geometry">
            <mxPoint x="192" y="265" as="sourcePoint" />
            <mxPoint x="357" y="872" as="targetPoint" />
          </mxGeometry>
        </mxCell>
        <mxCell id="SMSk38Dg5xrXoP6J3pRU-15" value="Non" style="text;html=1;align=center;verticalAlign=middle;resizable=0;points=[];autosize=1;strokeColor=none;fillColor=none;" parent="XFr-2iS9YjRfgRAXZtEG-103" vertex="1">
          <mxGeometry x="110" y="280" width="40" height="20" as="geometry" />
        </mxCell>
        <mxCell id="SMSk38Dg5xrXoP6J3pRU-19" value="Rentrer les données du livres" style="strokeWidth=2;html=1;shape=mxgraph.flowchart.terminator;whiteSpace=wrap;" parent="XFr-2iS9YjRfgRAXZtEG-103" vertex="1">
          <mxGeometry x="32" y="450" width="118" height="70" as="geometry" />
        </mxCell>
        <mxCell id="SMSk38Dg5xrXoP6J3pRU-18" style="edgeStyle=orthogonalEdgeStyle;rounded=0;orthogonalLoop=1;jettySize=auto;html=1;endArrow=classic;endFill=1;strokeColor=#FF8000;exitX=0;exitY=0.5;exitDx=0;exitDy=0;entryX=0.5;entryY=0;entryDx=0;entryDy=0;entryPerimeter=0;" parent="XFr-2iS9YjRfgRAXZtEG-103" source="SMSk38Dg5xrXoP6J3pRU-13" target="SMSk38Dg5xrXoP6J3pRU-80" edge="1">
          <mxGeometry relative="1" as="geometry">
            <mxPoint x="140" y="330" as="sourcePoint" />
            <mxPoint x="40" y="323" as="targetPoint" />
            <Array as="points">
              <mxPoint x="94" y="323" />
            </Array>
          </mxGeometry>
        </mxCell>
        <mxCell id="SMSk38Dg5xrXoP6J3pRU-16" value="Oui" style="text;html=1;align=center;verticalAlign=middle;resizable=0;points=[];autosize=1;strokeColor=none;fillColor=none;" parent="XFr-2iS9YjRfgRAXZtEG-103" vertex="1">
          <mxGeometry x="250" y="293" width="30" height="20" as="geometry" />
        </mxCell>
        <mxCell id="SMSk38Dg5xrXoP6J3pRU-17" style="edgeStyle=orthogonalEdgeStyle;rounded=0;orthogonalLoop=1;jettySize=auto;html=1;endArrow=classic;endFill=1;strokeColor=#00CC00;exitX=1;exitY=0.5;exitDx=0;exitDy=0;entryX=0.453;entryY=-0.032;entryDx=0;entryDy=0;entryPerimeter=0;" parent="XFr-2iS9YjRfgRAXZtEG-103" source="SMSk38Dg5xrXoP6J3pRU-13" target="SMSk38Dg5xrXoP6J3pRU-56" edge="1">
          <mxGeometry relative="1" as="geometry">
            <mxPoint x="310" y="390" as="targetPoint" />
            <Array as="points">
              <mxPoint x="310" y="323" />
            </Array>
            <mxPoint x="260" y="320" as="sourcePoint" />
          </mxGeometry>
        </mxCell>
        <mxCell id="SMSk38Dg5xrXoP6J3pRU-56" value="Sélectionner le livre" style="strokeWidth=2;html=1;shape=mxgraph.flowchart.terminator;whiteSpace=wrap;" parent="XFr-2iS9YjRfgRAXZtEG-103" vertex="1">
          <mxGeometry x="256.5" y="437" width="118" height="70" as="geometry" />
        </mxCell>
        <mxCell id="SMSk38Dg5xrXoP6J3pRU-78" style="edgeStyle=orthogonalEdgeStyle;rounded=0;orthogonalLoop=1;jettySize=auto;html=1;entryX=0.5;entryY=0;entryDx=0;entryDy=0;" parent="XFr-2iS9YjRfgRAXZtEG-103" source="SMSk38Dg5xrXoP6J3pRU-58" target="SMSk38Dg5xrXoP6J3pRU-71" edge="1">
          <mxGeometry relative="1" as="geometry" />
        </mxCell>
        <mxCell id="SMSk38Dg5xrXoP6J3pRU-58" value="Vérifier si les écrivains existent" style="strokeWidth=2;html=1;shape=mxgraph.flowchart.terminator;whiteSpace=wrap;" parent="XFr-2iS9YjRfgRAXZtEG-103" vertex="1">
          <mxGeometry x="142.25" y="752" width="109" height="69" as="geometry" />
        </mxCell>
        <mxCell id="SMSk38Dg5xrXoP6J3pRU-71" value="" style="shape=rhombus;perimeter=rhombusPerimeter;whiteSpace=wrap;html=1;align=center;fillColor=#ffff88;strokeColor=#36393d;" parent="XFr-2iS9YjRfgRAXZtEG-103" vertex="1">
          <mxGeometry x="136.75" y="860" width="120" height="60" as="geometry" />
        </mxCell>
        <mxCell id="SMSk38Dg5xrXoP6J3pRU-72" value="Non" style="text;html=1;align=center;verticalAlign=middle;resizable=0;points=[];autosize=1;strokeColor=none;fillColor=none;" parent="XFr-2iS9YjRfgRAXZtEG-103" vertex="1">
          <mxGeometry x="110.25" y="847" width="40" height="20" as="geometry" />
        </mxCell>
        <mxCell id="SMSk38Dg5xrXoP6J3pRU-86" style="edgeStyle=orthogonalEdgeStyle;rounded=0;orthogonalLoop=1;jettySize=auto;html=1;" parent="XFr-2iS9YjRfgRAXZtEG-103" source="SMSk38Dg5xrXoP6J3pRU-73" edge="1">
          <mxGeometry relative="1" as="geometry">
            <mxPoint x="-554" y="1130" as="targetPoint" />
          </mxGeometry>
        </mxCell>
        <mxCell id="SMSk38Dg5xrXoP6J3pRU-73" value="Rentrer les données de de l&#39;écrivain" style="strokeWidth=2;html=1;shape=mxgraph.flowchart.terminator;whiteSpace=wrap;" parent="XFr-2iS9YjRfgRAXZtEG-103" vertex="1">
          <mxGeometry x="19.25" y="1011" width="130" height="70" as="geometry" />
        </mxCell>
        <mxCell id="SMSk38Dg5xrXoP6J3pRU-74" style="edgeStyle=orthogonalEdgeStyle;rounded=0;orthogonalLoop=1;jettySize=auto;html=1;endArrow=classic;endFill=1;strokeColor=#FF8000;exitX=0;exitY=0.5;exitDx=0;exitDy=0;entryX=0.5;entryY=0;entryDx=0;entryDy=0;entryPerimeter=0;" parent="XFr-2iS9YjRfgRAXZtEG-103" source="SMSk38Dg5xrXoP6J3pRU-71" target="SMSk38Dg5xrXoP6J3pRU-83" edge="1">
          <mxGeometry relative="1" as="geometry">
            <mxPoint x="140.25" y="897" as="sourcePoint" />
            <mxPoint x="91.25" y="911" as="targetPoint" />
            <Array as="points">
              <mxPoint x="91.25" y="890" />
            </Array>
          </mxGeometry>
        </mxCell>
        <mxCell id="SMSk38Dg5xrXoP6J3pRU-75" value="Oui" style="text;html=1;align=center;verticalAlign=middle;resizable=0;points=[];autosize=1;strokeColor=none;fillColor=none;" parent="XFr-2iS9YjRfgRAXZtEG-103" vertex="1">
          <mxGeometry x="250.25" y="860" width="30" height="20" as="geometry" />
        </mxCell>
        <mxCell id="SMSk38Dg5xrXoP6J3pRU-76" style="edgeStyle=orthogonalEdgeStyle;rounded=0;orthogonalLoop=1;jettySize=auto;html=1;endArrow=classic;endFill=1;strokeColor=#00CC00;exitX=1;exitY=0.5;exitDx=0;exitDy=0;" parent="XFr-2iS9YjRfgRAXZtEG-103" source="SMSk38Dg5xrXoP6J3pRU-71" edge="1">
          <mxGeometry relative="1" as="geometry">
            <mxPoint x="310.25" y="962" as="targetPoint" />
            <Array as="points">
              <mxPoint x="310.25" y="890" />
              <mxPoint x="310.25" y="962" />
            </Array>
            <mxPoint x="260.25" y="887" as="sourcePoint" />
          </mxGeometry>
        </mxCell>
        <mxCell id="SMSk38Dg5xrXoP6J3pRU-77" value="Sélectionner la maison d’édition" style="strokeWidth=2;html=1;shape=mxgraph.flowchart.terminator;whiteSpace=wrap;" parent="XFr-2iS9YjRfgRAXZtEG-103" vertex="1">
          <mxGeometry x="242.25" y="964" width="133.5" height="70" as="geometry" />
        </mxCell>
        <mxCell id="SMSk38Dg5xrXoP6J3pRU-81" style="edgeStyle=orthogonalEdgeStyle;rounded=0;orthogonalLoop=1;jettySize=auto;html=1;exitX=0.5;exitY=1;exitDx=0;exitDy=0;exitPerimeter=0;" parent="XFr-2iS9YjRfgRAXZtEG-103" source="SMSk38Dg5xrXoP6J3pRU-80" edge="1">
          <mxGeometry relative="1" as="geometry">
            <mxPoint x="93.56521739130449" y="450" as="targetPoint" />
          </mxGeometry>
        </mxCell>
        <mxCell id="SMSk38Dg5xrXoP6J3pRU-80" value="Afficher le formulaire du livre" style="strokeWidth=2;html=1;shape=mxgraph.flowchart.terminator;whiteSpace=wrap;" parent="XFr-2iS9YjRfgRAXZtEG-103" vertex="1">
          <mxGeometry x="35" y="353" width="118" height="70" as="geometry" />
        </mxCell>
        <mxCell id="SMSk38Dg5xrXoP6J3pRU-84" style="edgeStyle=orthogonalEdgeStyle;rounded=0;orthogonalLoop=1;jettySize=auto;html=1;exitX=0.5;exitY=1;exitDx=0;exitDy=0;exitPerimeter=0;" parent="XFr-2iS9YjRfgRAXZtEG-103" source="SMSk38Dg5xrXoP6J3pRU-83" edge="1">
          <mxGeometry relative="1" as="geometry">
            <mxPoint x="91.75" y="1011" as="targetPoint" />
          </mxGeometry>
        </mxCell>
        <mxCell id="SMSk38Dg5xrXoP6J3pRU-83" value="Afficher le formulaire de la création d&#39;écrivain" style="strokeWidth=2;html=1;shape=mxgraph.flowchart.terminator;whiteSpace=wrap;" parent="XFr-2iS9YjRfgRAXZtEG-103" vertex="1">
          <mxGeometry x="32.25" y="920" width="118" height="70" as="geometry" />
        </mxCell>
        <mxCell id="SMSk38Dg5xrXoP6J3pRU-98" style="edgeStyle=orthogonalEdgeStyle;rounded=0;orthogonalLoop=1;jettySize=auto;html=1;" parent="XFr-2iS9YjRfgRAXZtEG-103" source="SMSk38Dg5xrXoP6J3pRU-94" edge="1">
          <mxGeometry relative="1" as="geometry">
            <mxPoint x="320.75" y="1280" as="targetPoint" />
          </mxGeometry>
        </mxCell>
        <mxCell id="SMSk38Dg5xrXoP6J3pRU-94" value="Vérifier si le livre appartient à une série" style="strokeWidth=2;html=1;shape=mxgraph.flowchart.terminator;whiteSpace=wrap;" parent="XFr-2iS9YjRfgRAXZtEG-103" vertex="1">
          <mxGeometry x="266.25" y="1170" width="109" height="70" as="geometry" />
        </mxCell>
        <mxCell id="SMSk38Dg5xrXoP6J3pRU-99" style="edgeStyle=orthogonalEdgeStyle;rounded=0;orthogonalLoop=1;jettySize=auto;html=1;" parent="XFr-2iS9YjRfgRAXZtEG-103" source="SMSk38Dg5xrXoP6J3pRU-95" edge="1">
          <mxGeometry relative="1" as="geometry">
            <mxPoint x="724.5" y="1290" as="targetPoint" />
          </mxGeometry>
        </mxCell>
        <mxCell id="SMSk38Dg5xrXoP6J3pRU-95" value="Vérifier si le livre appartient à une univers" style="strokeWidth=2;html=1;shape=mxgraph.flowchart.terminator;whiteSpace=wrap;" parent="XFr-2iS9YjRfgRAXZtEG-103" vertex="1">
          <mxGeometry x="670" y="1180" width="109" height="69" as="geometry" />
        </mxCell>
        <mxCell id="SMSk38Dg5xrXoP6J3pRU-96" value="" style="shape=rhombus;perimeter=rhombusPerimeter;whiteSpace=wrap;html=1;align=center;fillColor=#ffff88;strokeColor=#36393d;" parent="XFr-2iS9YjRfgRAXZtEG-103" vertex="1">
          <mxGeometry x="260.25" y="1280" width="120" height="60" as="geometry" />
        </mxCell>
        <mxCell id="SMSk38Dg5xrXoP6J3pRU-97" value="" style="shape=rhombus;perimeter=rhombusPerimeter;whiteSpace=wrap;html=1;align=center;fillColor=#ffff88;strokeColor=#36393d;" parent="XFr-2iS9YjRfgRAXZtEG-103" vertex="1">
          <mxGeometry x="664" y="1290" width="120" height="60" as="geometry" />
        </mxCell>
        <mxCell id="SMSk38Dg5xrXoP6J3pRU-100" value="Oui" style="text;html=1;align=center;verticalAlign=middle;resizable=0;points=[];autosize=1;strokeColor=none;fillColor=none;" parent="XFr-2iS9YjRfgRAXZtEG-103" vertex="1">
          <mxGeometry x="640" y="1293" width="30" height="20" as="geometry" />
        </mxCell>
        <mxCell id="SMSk38Dg5xrXoP6J3pRU-101" style="edgeStyle=orthogonalEdgeStyle;rounded=0;orthogonalLoop=1;jettySize=auto;html=1;endArrow=classic;endFill=1;strokeColor=#00CC00;exitX=0;exitY=0.5;exitDx=0;exitDy=0;entryX=0.5;entryY=0;entryDx=0;entryDy=0;entryPerimeter=0;" parent="XFr-2iS9YjRfgRAXZtEG-103" source="SMSk38Dg5xrXoP6J3pRU-97" target="SMSk38Dg5xrXoP6J3pRU-102" edge="1">
          <mxGeometry relative="1" as="geometry">
            <mxPoint x="837.25" y="1392" as="targetPoint" />
            <Array as="points">
              <mxPoint x="597" y="1320" />
            </Array>
            <mxPoint x="784" y="1320" as="sourcePoint" />
          </mxGeometry>
        </mxCell>
        <mxCell id="SMSk38Dg5xrXoP6J3pRU-104" style="edgeStyle=orthogonalEdgeStyle;rounded=0;orthogonalLoop=1;jettySize=auto;html=1;entryX=0.5;entryY=0;entryDx=0;entryDy=0;" parent="XFr-2iS9YjRfgRAXZtEG-103" source="SMSk38Dg5xrXoP6J3pRU-102" target="SMSk38Dg5xrXoP6J3pRU-103" edge="1">
          <mxGeometry relative="1" as="geometry" />
        </mxCell>
        <mxCell id="SMSk38Dg5xrXoP6J3pRU-102" value="Vérifier si la série existe" style="strokeWidth=2;html=1;shape=mxgraph.flowchart.terminator;whiteSpace=wrap;" parent="XFr-2iS9YjRfgRAXZtEG-103" vertex="1">
          <mxGeometry x="530.5" y="1390" width="133.5" height="70" as="geometry" />
        </mxCell>
        <mxCell id="SMSk38Dg5xrXoP6J3pRU-103" value="" style="shape=rhombus;perimeter=rhombusPerimeter;whiteSpace=wrap;html=1;align=center;fillColor=#ffff88;strokeColor=#36393d;" parent="XFr-2iS9YjRfgRAXZtEG-103" vertex="1">
          <mxGeometry x="537.25" y="1490" width="120" height="60" as="geometry" />
        </mxCell>
        <mxCell id="SMSk38Dg5xrXoP6J3pRU-105" value="Oui" style="text;html=1;align=center;verticalAlign=middle;resizable=0;points=[];autosize=1;strokeColor=none;fillColor=none;" parent="XFr-2iS9YjRfgRAXZtEG-103" vertex="1">
          <mxGeometry x="651.25" y="1486" width="30" height="20" as="geometry" />
        </mxCell>
        <mxCell id="SMSk38Dg5xrXoP6J3pRU-106" style="edgeStyle=orthogonalEdgeStyle;rounded=0;orthogonalLoop=1;jettySize=auto;html=1;endArrow=classic;endFill=1;strokeColor=#00CC00;exitX=1;exitY=0.5;exitDx=0;exitDy=0;" parent="XFr-2iS9YjRfgRAXZtEG-103" edge="1">
          <mxGeometry relative="1" as="geometry">
            <mxPoint x="711.5" y="1592" as="targetPoint" />
            <Array as="points">
              <mxPoint x="711.5" y="1520" />
              <mxPoint x="711.5" y="1592" />
            </Array>
            <mxPoint x="658.25" y="1520" as="sourcePoint" />
          </mxGeometry>
        </mxCell>
        <mxCell id="SMSk38Dg5xrXoP6J3pRU-148" style="edgeStyle=orthogonalEdgeStyle;rounded=0;orthogonalLoop=1;jettySize=auto;html=1;" parent="XFr-2iS9YjRfgRAXZtEG-103" source="SMSk38Dg5xrXoP6J3pRU-107" edge="1">
          <mxGeometry relative="1" as="geometry">
            <mxPoint x="-444" y="1930" as="targetPoint" />
            <Array as="points">
              <mxPoint x="711" y="1880" />
              <mxPoint x="-444" y="1880" />
            </Array>
          </mxGeometry>
        </mxCell>
        <mxCell id="SMSk38Dg5xrXoP6J3pRU-107" value="Sélectionner la série" style="strokeWidth=2;html=1;shape=mxgraph.flowchart.terminator;whiteSpace=wrap;" parent="XFr-2iS9YjRfgRAXZtEG-103" vertex="1">
          <mxGeometry x="651.25" y="1590" width="120" height="70" as="geometry" />
        </mxCell>
        <mxCell id="SMSk38Dg5xrXoP6J3pRU-108" value="Non" style="text;html=1;align=center;verticalAlign=middle;resizable=0;points=[];autosize=1;strokeColor=none;fillColor=none;" parent="XFr-2iS9YjRfgRAXZtEG-103" vertex="1">
          <mxGeometry x="510" y="1477" width="40" height="20" as="geometry" />
        </mxCell>
        <mxCell id="SMSk38Dg5xrXoP6J3pRU-109" value="Rentrer les données de la série" style="strokeWidth=2;html=1;shape=mxgraph.flowchart.terminator;whiteSpace=wrap;" parent="XFr-2iS9YjRfgRAXZtEG-103" vertex="1">
          <mxGeometry x="419" y="1641" width="130" height="70" as="geometry" />
        </mxCell>
        <mxCell id="SMSk38Dg5xrXoP6J3pRU-110" style="edgeStyle=orthogonalEdgeStyle;rounded=0;orthogonalLoop=1;jettySize=auto;html=1;endArrow=classic;endFill=1;strokeColor=#FF8000;exitX=0;exitY=0.5;exitDx=0;exitDy=0;entryX=0.5;entryY=0;entryDx=0;entryDy=0;entryPerimeter=0;" parent="XFr-2iS9YjRfgRAXZtEG-103" target="SMSk38Dg5xrXoP6J3pRU-112" edge="1">
          <mxGeometry relative="1" as="geometry">
            <mxPoint x="536.75" y="1520" as="sourcePoint" />
            <mxPoint x="491" y="1541" as="targetPoint" />
            <Array as="points">
              <mxPoint x="491" y="1520" />
            </Array>
          </mxGeometry>
        </mxCell>
        <mxCell id="SMSk38Dg5xrXoP6J3pRU-111" style="edgeStyle=orthogonalEdgeStyle;rounded=0;orthogonalLoop=1;jettySize=auto;html=1;exitX=0.5;exitY=1;exitDx=0;exitDy=0;exitPerimeter=0;" parent="XFr-2iS9YjRfgRAXZtEG-103" source="SMSk38Dg5xrXoP6J3pRU-112" edge="1">
          <mxGeometry relative="1" as="geometry">
            <mxPoint x="491.5" y="1641" as="targetPoint" />
          </mxGeometry>
        </mxCell>
        <mxCell id="SMSk38Dg5xrXoP6J3pRU-112" value="Afficher le formulaire de la création de série" style="strokeWidth=2;html=1;shape=mxgraph.flowchart.terminator;whiteSpace=wrap;" parent="XFr-2iS9YjRfgRAXZtEG-103" vertex="1">
          <mxGeometry x="432" y="1550" width="118" height="70" as="geometry" />
        </mxCell>
        <mxCell id="SMSk38Dg5xrXoP6J3pRU-113" value="Non" style="text;html=1;align=center;verticalAlign=middle;resizable=0;points=[];autosize=1;strokeColor=none;fillColor=none;" parent="XFr-2iS9YjRfgRAXZtEG-103" vertex="1">
          <mxGeometry x="771.25" y="1290" width="40" height="20" as="geometry" />
        </mxCell>
        <mxCell id="SMSk38Dg5xrXoP6J3pRU-114" style="edgeStyle=orthogonalEdgeStyle;rounded=0;orthogonalLoop=1;jettySize=auto;html=1;endArrow=classic;endFill=1;strokeColor=#FF8000;" parent="XFr-2iS9YjRfgRAXZtEG-103" target="SMSk38Dg5xrXoP6J3pRU-131" edge="1">
          <mxGeometry relative="1" as="geometry">
            <mxPoint x="784" y="1320" as="sourcePoint" />
            <mxPoint x="784" y="1404" as="targetPoint" />
            <Array as="points">
              <mxPoint x="820" y="1320" />
              <mxPoint x="820" y="1900" />
              <mxPoint x="-405" y="1900" />
            </Array>
          </mxGeometry>
        </mxCell>
        <mxCell id="SMSk38Dg5xrXoP6J3pRU-49" value="Sélectionner le format" style="strokeWidth=2;html=1;shape=mxgraph.flowchart.terminator;whiteSpace=wrap;" parent="XFr-2iS9YjRfgRAXZtEG-103" vertex="1">
          <mxGeometry x="35" y="1959" width="120" height="70" as="geometry" />
        </mxCell>
        <mxCell id="SMSk38Dg5xrXoP6J3pRU-136" value="Vérifier si la maison d&#39;édition existe" style="strokeWidth=2;html=1;shape=mxgraph.flowchart.terminator;whiteSpace=wrap;" parent="XFr-2iS9YjRfgRAXZtEG-103" vertex="1">
          <mxGeometry x="308.25" y="1964" width="133.5" height="70" as="geometry" />
        </mxCell>
        <mxCell id="SMSk38Dg5xrXoP6J3pRU-137" value="" style="shape=rhombus;perimeter=rhombusPerimeter;whiteSpace=wrap;html=1;align=center;fillColor=#ffff88;strokeColor=#36393d;" parent="XFr-2iS9YjRfgRAXZtEG-103" vertex="1">
          <mxGeometry x="315" y="2064" width="120" height="60" as="geometry" />
        </mxCell>
        <mxCell id="SMSk38Dg5xrXoP6J3pRU-135" style="edgeStyle=orthogonalEdgeStyle;rounded=0;orthogonalLoop=1;jettySize=auto;html=1;entryX=0.5;entryY=0;entryDx=0;entryDy=0;" parent="XFr-2iS9YjRfgRAXZtEG-103" source="SMSk38Dg5xrXoP6J3pRU-136" target="SMSk38Dg5xrXoP6J3pRU-137" edge="1">
          <mxGeometry relative="1" as="geometry" />
        </mxCell>
        <mxCell id="SMSk38Dg5xrXoP6J3pRU-138" value="Oui" style="text;html=1;align=center;verticalAlign=middle;resizable=0;points=[];autosize=1;strokeColor=none;fillColor=none;" parent="XFr-2iS9YjRfgRAXZtEG-103" vertex="1">
          <mxGeometry x="429" y="2060" width="30" height="20" as="geometry" />
        </mxCell>
        <mxCell id="SMSk38Dg5xrXoP6J3pRU-139" style="edgeStyle=orthogonalEdgeStyle;rounded=0;orthogonalLoop=1;jettySize=auto;html=1;endArrow=classic;endFill=1;strokeColor=#00CC00;exitX=1;exitY=0.5;exitDx=0;exitDy=0;" parent="XFr-2iS9YjRfgRAXZtEG-103" edge="1">
          <mxGeometry relative="1" as="geometry">
            <mxPoint x="489.25" y="2166" as="targetPoint" />
            <Array as="points">
              <mxPoint x="489.25" y="2094" />
              <mxPoint x="489.25" y="2166" />
            </Array>
            <mxPoint x="436" y="2094" as="sourcePoint" />
          </mxGeometry>
        </mxCell>
        <mxCell id="SMSk38Dg5xrXoP6J3pRU-140" value="Sélectionner la maison d&#39;édition" style="strokeWidth=2;html=1;shape=mxgraph.flowchart.terminator;whiteSpace=wrap;" parent="XFr-2iS9YjRfgRAXZtEG-103" vertex="1">
          <mxGeometry x="429" y="2164" width="120" height="70" as="geometry" />
        </mxCell>
        <mxCell id="SMSk38Dg5xrXoP6J3pRU-141" value="Non" style="text;html=1;align=center;verticalAlign=middle;resizable=0;points=[];autosize=1;strokeColor=none;fillColor=none;" parent="XFr-2iS9YjRfgRAXZtEG-103" vertex="1">
          <mxGeometry x="287.75" y="2051" width="40" height="20" as="geometry" />
        </mxCell>
        <mxCell id="SMSk38Dg5xrXoP6J3pRU-159" style="edgeStyle=orthogonalEdgeStyle;rounded=0;orthogonalLoop=1;jettySize=auto;html=1;" parent="XFr-2iS9YjRfgRAXZtEG-103" source="SMSk38Dg5xrXoP6J3pRU-142" edge="1">
          <mxGeometry relative="1" as="geometry">
            <mxPoint x="-290" y="2250" as="targetPoint" />
          </mxGeometry>
        </mxCell>
        <mxCell id="SMSk38Dg5xrXoP6J3pRU-142" value="Rentrer les données de la maison d&#39;édition" style="strokeWidth=2;html=1;shape=mxgraph.flowchart.terminator;whiteSpace=wrap;" parent="XFr-2iS9YjRfgRAXZtEG-103" vertex="1">
          <mxGeometry x="196.75" y="2215" width="130" height="70" as="geometry" />
        </mxCell>
        <mxCell id="SMSk38Dg5xrXoP6J3pRU-143" style="edgeStyle=orthogonalEdgeStyle;rounded=0;orthogonalLoop=1;jettySize=auto;html=1;endArrow=classic;endFill=1;strokeColor=#FF8000;exitX=0;exitY=0.5;exitDx=0;exitDy=0;entryX=0.5;entryY=0;entryDx=0;entryDy=0;entryPerimeter=0;" parent="XFr-2iS9YjRfgRAXZtEG-103" target="SMSk38Dg5xrXoP6J3pRU-145" edge="1">
          <mxGeometry relative="1" as="geometry">
            <mxPoint x="314.5" y="2094" as="sourcePoint" />
            <mxPoint x="268.75" y="2115" as="targetPoint" />
            <Array as="points">
              <mxPoint x="268.75" y="2094" />
            </Array>
          </mxGeometry>
        </mxCell>
        <mxCell id="SMSk38Dg5xrXoP6J3pRU-144" style="edgeStyle=orthogonalEdgeStyle;rounded=0;orthogonalLoop=1;jettySize=auto;html=1;exitX=0.5;exitY=1;exitDx=0;exitDy=0;exitPerimeter=0;" parent="XFr-2iS9YjRfgRAXZtEG-103" source="SMSk38Dg5xrXoP6J3pRU-145" edge="1">
          <mxGeometry relative="1" as="geometry">
            <mxPoint x="269.25" y="2215" as="targetPoint" />
          </mxGeometry>
        </mxCell>
        <mxCell id="SMSk38Dg5xrXoP6J3pRU-145" value="Afficher le formulaire de la maison d&#39;édition" style="strokeWidth=2;html=1;shape=mxgraph.flowchart.terminator;whiteSpace=wrap;" parent="XFr-2iS9YjRfgRAXZtEG-103" vertex="1">
          <mxGeometry x="209.75" y="2124" width="118" height="70" as="geometry" />
        </mxCell>
        <mxCell id="XFr-2iS9YjRfgRAXZtEG-105" style="edgeStyle=orthogonalEdgeStyle;rounded=0;orthogonalLoop=1;jettySize=auto;html=1;entryX=1;entryY=0.5;entryDx=0;entryDy=0;entryPerimeter=0;endArrow=classic;endFill=1;" parent="1" source="-LpXlav8uHPvm0gaR7sH-254" target="-LpXlav8uHPvm0gaR7sH-255" edge="1">
          <mxGeometry relative="1" as="geometry" />
        </mxCell>
        <mxCell id="SMSk38Dg5xrXoP6J3pRU-21" style="edgeStyle=orthogonalEdgeStyle;rounded=0;orthogonalLoop=1;jettySize=auto;html=1;exitX=0;exitY=0.5;exitDx=0;exitDy=0;exitPerimeter=0;entryX=1;entryY=0.5;entryDx=0;entryDy=0;entryPerimeter=0;" parent="1" source="SMSk38Dg5xrXoP6J3pRU-19" target="SMSk38Dg5xrXoP6J3pRU-20" edge="1">
          <mxGeometry relative="1" as="geometry" />
        </mxCell>
        <mxCell id="SMSk38Dg5xrXoP6J3pRU-33" style="edgeStyle=orthogonalEdgeStyle;rounded=0;orthogonalLoop=1;jettySize=auto;html=1;" parent="1" edge="1">
          <mxGeometry relative="1" as="geometry">
            <mxPoint x="280" y="876" as="targetPoint" />
            <mxPoint x="280" y="846" as="sourcePoint" />
            <Array as="points">
              <mxPoint x="280" y="876" />
            </Array>
          </mxGeometry>
        </mxCell>
        <mxCell id="SMSk38Dg5xrXoP6J3pRU-48" style="edgeStyle=orthogonalEdgeStyle;rounded=0;orthogonalLoop=1;jettySize=auto;html=1;" parent="1" edge="1">
          <mxGeometry relative="1" as="geometry">
            <mxPoint x="441" y="874" as="targetPoint" />
            <mxPoint x="441" y="844" as="sourcePoint" />
            <Array as="points">
              <mxPoint x="441" y="874" />
            </Array>
          </mxGeometry>
        </mxCell>
        <mxCell id="SMSk38Dg5xrXoP6J3pRU-52" style="edgeStyle=orthogonalEdgeStyle;rounded=0;orthogonalLoop=1;jettySize=auto;html=1;exitX=0.5;exitY=1;exitDx=0;exitDy=0;exitPerimeter=0;entryX=0.469;entryY=-0.008;entryDx=0;entryDy=0;entryPerimeter=0;" parent="1" source="SMSk38Dg5xrXoP6J3pRU-27" target="SMSk38Dg5xrXoP6J3pRU-50" edge="1">
          <mxGeometry relative="1" as="geometry">
            <Array as="points">
              <mxPoint x="440" y="950" />
              <mxPoint x="1172" y="950" />
            </Array>
          </mxGeometry>
        </mxCell>
        <mxCell id="SMSk38Dg5xrXoP6J3pRU-55" style="edgeStyle=orthogonalEdgeStyle;rounded=0;orthogonalLoop=1;jettySize=auto;html=1;exitX=0.5;exitY=1;exitDx=0;exitDy=0;exitPerimeter=0;" parent="1" source="SMSk38Dg5xrXoP6J3pRU-25" target="SMSk38Dg5xrXoP6J3pRU-51" edge="1">
          <mxGeometry relative="1" as="geometry" />
        </mxCell>
        <mxCell id="SMSk38Dg5xrXoP6J3pRU-57" style="edgeStyle=orthogonalEdgeStyle;rounded=0;orthogonalLoop=1;jettySize=auto;html=1;" parent="1" source="SMSk38Dg5xrXoP6J3pRU-56" edge="1">
          <mxGeometry relative="1" as="geometry">
            <mxPoint x="310" y="2210" as="targetPoint" />
            <Array as="points">
              <mxPoint x="946" y="810" />
              <mxPoint x="1600" y="810" />
              <mxPoint x="1600" y="2190" />
              <mxPoint x="310" y="2190" />
            </Array>
          </mxGeometry>
        </mxCell>
        <mxCell id="6lrpFn_9t4CuSeWkkYaP-2" style="edgeStyle=orthogonalEdgeStyle;rounded=0;orthogonalLoop=1;jettySize=auto;html=1;" edge="1" parent="1" source="SMSk38Dg5xrXoP6J3pRU-51">
          <mxGeometry relative="1" as="geometry">
            <mxPoint x="310" y="2210" as="targetPoint" />
            <Array as="points">
              <mxPoint x="1036" y="1090" />
              <mxPoint x="1600" y="1090" />
              <mxPoint x="1600" y="2190" />
              <mxPoint x="310" y="2190" />
            </Array>
          </mxGeometry>
        </mxCell>
        <mxCell id="SMSk38Dg5xrXoP6J3pRU-51" value="Sélectionner les catégories" style="strokeWidth=2;html=1;shape=mxgraph.flowchart.terminator;whiteSpace=wrap;" parent="1" vertex="1">
          <mxGeometry x="977.25" y="991" width="118" height="70" as="geometry" />
        </mxCell>
        <mxCell id="SMSk38Dg5xrXoP6J3pRU-88" style="edgeStyle=orthogonalEdgeStyle;rounded=0;orthogonalLoop=1;jettySize=auto;html=1;exitX=0.5;exitY=1;exitDx=0;exitDy=0;exitPerimeter=0;" parent="1" source="SMSk38Dg5xrXoP6J3pRU-50" target="SMSk38Dg5xrXoP6J3pRU-131" edge="1">
          <mxGeometry relative="1" as="geometry">
            <mxPoint x="310" y="2200" as="targetPoint" />
            <Array as="points">
              <mxPoint x="1175" y="1090" />
              <mxPoint x="1600" y="1090" />
              <mxPoint x="1600" y="2190" />
              <mxPoint x="310" y="2190" />
            </Array>
          </mxGeometry>
        </mxCell>
        <mxCell id="SMSk38Dg5xrXoP6J3pRU-50" value="Sélectionner le type" style="strokeWidth=2;html=1;shape=mxgraph.flowchart.terminator;whiteSpace=wrap;" parent="1" vertex="1">
          <mxGeometry x="1116.25" y="991" width="118" height="70" as="geometry" />
        </mxCell>
        <mxCell id="SMSk38Dg5xrXoP6J3pRU-82" style="edgeStyle=orthogonalEdgeStyle;rounded=0;orthogonalLoop=1;jettySize=auto;html=1;exitX=0.5;exitY=1;exitDx=0;exitDy=0;exitPerimeter=0;entryX=0.431;entryY=-0.022;entryDx=0;entryDy=0;entryPerimeter=0;" parent="1" source="SMSk38Dg5xrXoP6J3pRU-24" target="SMSk38Dg5xrXoP6J3pRU-58" edge="1">
          <mxGeometry relative="1" as="geometry" />
        </mxCell>
        <mxCell id="SMSk38Dg5xrXoP6J3pRU-87" style="edgeStyle=orthogonalEdgeStyle;rounded=0;orthogonalLoop=1;jettySize=auto;html=1;exitX=0.5;exitY=1;exitDx=0;exitDy=0;exitPerimeter=0;" parent="1" source="SMSk38Dg5xrXoP6J3pRU-77" target="SMSk38Dg5xrXoP6J3pRU-85" edge="1">
          <mxGeometry relative="1" as="geometry">
            <mxPoint x="170" y="1390" as="targetPoint" />
            <Array as="points">
              <mxPoint x="939" y="1370" />
              <mxPoint x="170" y="1370" />
            </Array>
          </mxGeometry>
        </mxCell>
        <mxCell id="SMSk38Dg5xrXoP6J3pRU-92" style="edgeStyle=orthogonalEdgeStyle;rounded=0;orthogonalLoop=1;jettySize=auto;html=1;entryX=0.5;entryY=0;entryDx=0;entryDy=0;" parent="1" edge="1">
          <mxGeometry relative="1" as="geometry">
            <mxPoint x="148.48000000000002" y="1522" as="sourcePoint" />
            <mxPoint x="148.48000000000002" y="1561" as="targetPoint" />
            <Array as="points">
              <mxPoint x="148" y="1532" />
              <mxPoint x="148" y="1532" />
            </Array>
          </mxGeometry>
        </mxCell>
        <mxCell id="SMSk38Dg5xrXoP6J3pRU-115" value="" style="shape=rhombus;perimeter=rhombusPerimeter;whiteSpace=wrap;html=1;align=center;fillColor=#ffff88;strokeColor=#36393d;" parent="1" vertex="1">
          <mxGeometry x="891" y="1560" width="120" height="60" as="geometry" />
        </mxCell>
        <mxCell id="SMSk38Dg5xrXoP6J3pRU-116" value="Oui" style="text;html=1;align=center;verticalAlign=middle;resizable=0;points=[];autosize=1;strokeColor=none;fillColor=none;" parent="1" vertex="1">
          <mxGeometry x="867" y="1563" width="30" height="20" as="geometry" />
        </mxCell>
        <mxCell id="SMSk38Dg5xrXoP6J3pRU-117" style="edgeStyle=orthogonalEdgeStyle;rounded=0;orthogonalLoop=1;jettySize=auto;html=1;endArrow=classic;endFill=1;strokeColor=#00CC00;exitX=0;exitY=0.5;exitDx=0;exitDy=0;entryX=0.5;entryY=0;entryDx=0;entryDy=0;entryPerimeter=0;" parent="1" source="SMSk38Dg5xrXoP6J3pRU-115" target="SMSk38Dg5xrXoP6J3pRU-119" edge="1">
          <mxGeometry relative="1" as="geometry">
            <mxPoint x="1064.25" y="1662" as="targetPoint" />
            <Array as="points">
              <mxPoint x="824" y="1590" />
            </Array>
            <mxPoint x="1011" y="1590" as="sourcePoint" />
          </mxGeometry>
        </mxCell>
        <mxCell id="SMSk38Dg5xrXoP6J3pRU-118" style="edgeStyle=orthogonalEdgeStyle;rounded=0;orthogonalLoop=1;jettySize=auto;html=1;entryX=0.5;entryY=0;entryDx=0;entryDy=0;" parent="1" source="SMSk38Dg5xrXoP6J3pRU-119" target="SMSk38Dg5xrXoP6J3pRU-120" edge="1">
          <mxGeometry relative="1" as="geometry" />
        </mxCell>
        <mxCell id="SMSk38Dg5xrXoP6J3pRU-119" value="Vérifier si l&#39;univers existe" style="strokeWidth=2;html=1;shape=mxgraph.flowchart.terminator;whiteSpace=wrap;" parent="1" vertex="1">
          <mxGeometry x="757.5" y="1660" width="133.5" height="70" as="geometry" />
        </mxCell>
        <mxCell id="SMSk38Dg5xrXoP6J3pRU-120" value="" style="shape=rhombus;perimeter=rhombusPerimeter;whiteSpace=wrap;html=1;align=center;fillColor=#ffff88;strokeColor=#36393d;" parent="1" vertex="1">
          <mxGeometry x="764.25" y="1760" width="120" height="60" as="geometry" />
        </mxCell>
        <mxCell id="SMSk38Dg5xrXoP6J3pRU-121" value="Oui" style="text;html=1;align=center;verticalAlign=middle;resizable=0;points=[];autosize=1;strokeColor=none;fillColor=none;" parent="1" vertex="1">
          <mxGeometry x="878.25" y="1756" width="30" height="20" as="geometry" />
        </mxCell>
        <mxCell id="SMSk38Dg5xrXoP6J3pRU-122" style="edgeStyle=orthogonalEdgeStyle;rounded=0;orthogonalLoop=1;jettySize=auto;html=1;endArrow=classic;endFill=1;strokeColor=#00CC00;exitX=1;exitY=0.5;exitDx=0;exitDy=0;" parent="1" edge="1">
          <mxGeometry relative="1" as="geometry">
            <mxPoint x="938.5" y="1862" as="targetPoint" />
            <Array as="points">
              <mxPoint x="938.5" y="1790" />
              <mxPoint x="938.5" y="1862" />
            </Array>
            <mxPoint x="885.25" y="1790" as="sourcePoint" />
          </mxGeometry>
        </mxCell>
        <mxCell id="SMSk38Dg5xrXoP6J3pRU-146" style="edgeStyle=orthogonalEdgeStyle;rounded=0;orthogonalLoop=1;jettySize=auto;html=1;exitX=0.5;exitY=1;exitDx=0;exitDy=0;exitPerimeter=0;" parent="1" source="SMSk38Dg5xrXoP6J3pRU-123" target="SMSk38Dg5xrXoP6J3pRU-131" edge="1">
          <mxGeometry relative="1" as="geometry">
            <mxPoint y="2190" as="targetPoint" />
            <Array as="points">
              <mxPoint x="938" y="2040" />
              <mxPoint x="30" y="2040" />
            </Array>
          </mxGeometry>
        </mxCell>
        <mxCell id="SMSk38Dg5xrXoP6J3pRU-123" value="Sélectionner l&#39;univers" style="strokeWidth=2;html=1;shape=mxgraph.flowchart.terminator;whiteSpace=wrap;" parent="1" vertex="1">
          <mxGeometry x="878.25" y="1860" width="120" height="70" as="geometry" />
        </mxCell>
        <mxCell id="SMSk38Dg5xrXoP6J3pRU-124" value="Non" style="text;html=1;align=center;verticalAlign=middle;resizable=0;points=[];autosize=1;strokeColor=none;fillColor=none;" parent="1" vertex="1">
          <mxGeometry x="737" y="1747" width="40" height="20" as="geometry" />
        </mxCell>
        <mxCell id="SMSk38Dg5xrXoP6J3pRU-154" style="edgeStyle=orthogonalEdgeStyle;rounded=0;orthogonalLoop=1;jettySize=auto;html=1;" parent="1" source="SMSk38Dg5xrXoP6J3pRU-125" edge="1">
          <mxGeometry relative="1" as="geometry">
            <mxPoint x="-22.962962962962962" y="2070" as="targetPoint" />
          </mxGeometry>
        </mxCell>
        <mxCell id="SMSk38Dg5xrXoP6J3pRU-125" value="Rentrer les données de la série" style="strokeWidth=2;html=1;shape=mxgraph.flowchart.terminator;whiteSpace=wrap;" parent="1" vertex="1">
          <mxGeometry x="646" y="1911" width="130" height="70" as="geometry" />
        </mxCell>
        <mxCell id="SMSk38Dg5xrXoP6J3pRU-126" style="edgeStyle=orthogonalEdgeStyle;rounded=0;orthogonalLoop=1;jettySize=auto;html=1;endArrow=classic;endFill=1;strokeColor=#FF8000;exitX=0;exitY=0.5;exitDx=0;exitDy=0;entryX=0.5;entryY=0;entryDx=0;entryDy=0;entryPerimeter=0;" parent="1" target="SMSk38Dg5xrXoP6J3pRU-128" edge="1">
          <mxGeometry relative="1" as="geometry">
            <mxPoint x="763.75" y="1790" as="sourcePoint" />
            <mxPoint x="718" y="1811" as="targetPoint" />
            <Array as="points">
              <mxPoint x="718" y="1790" />
            </Array>
          </mxGeometry>
        </mxCell>
        <mxCell id="SMSk38Dg5xrXoP6J3pRU-127" style="edgeStyle=orthogonalEdgeStyle;rounded=0;orthogonalLoop=1;jettySize=auto;html=1;exitX=0.5;exitY=1;exitDx=0;exitDy=0;exitPerimeter=0;" parent="1" source="SMSk38Dg5xrXoP6J3pRU-128" edge="1">
          <mxGeometry relative="1" as="geometry">
            <mxPoint x="718.5" y="1911" as="targetPoint" />
          </mxGeometry>
        </mxCell>
        <mxCell id="SMSk38Dg5xrXoP6J3pRU-128" value="Afficher le formulaire de la création de l&#39;univers" style="strokeWidth=2;html=1;shape=mxgraph.flowchart.terminator;whiteSpace=wrap;" parent="1" vertex="1">
          <mxGeometry x="659" y="1820" width="118" height="70" as="geometry" />
        </mxCell>
        <mxCell id="SMSk38Dg5xrXoP6J3pRU-129" value="Non" style="text;html=1;align=center;verticalAlign=middle;resizable=0;points=[];autosize=1;strokeColor=none;fillColor=none;" parent="1" vertex="1">
          <mxGeometry x="998.25" y="1560" width="40" height="20" as="geometry" />
        </mxCell>
        <mxCell id="SMSk38Dg5xrXoP6J3pRU-130" style="edgeStyle=orthogonalEdgeStyle;rounded=0;orthogonalLoop=1;jettySize=auto;html=1;endArrow=classic;endFill=1;strokeColor=#FF8000;" parent="1" target="SMSk38Dg5xrXoP6J3pRU-131" edge="1">
          <mxGeometry relative="1" as="geometry">
            <mxPoint x="1011" y="1590" as="sourcePoint" />
            <mxPoint x="120" y="2060" as="targetPoint" />
            <Array as="points">
              <mxPoint x="1030" y="1590" />
              <mxPoint x="1030" y="2050" />
              <mxPoint x="50" y="2050" />
            </Array>
          </mxGeometry>
        </mxCell>
        <mxCell id="SMSk38Dg5xrXoP6J3pRU-54" style="edgeStyle=orthogonalEdgeStyle;rounded=0;orthogonalLoop=1;jettySize=auto;html=1;exitX=1;exitY=0.5;exitDx=0;exitDy=0;exitPerimeter=0;entryX=0;entryY=0.5;entryDx=0;entryDy=0;entryPerimeter=0;" parent="1" source="SMSk38Dg5xrXoP6J3pRU-26" target="SMSk38Dg5xrXoP6J3pRU-49" edge="1">
          <mxGeometry relative="1" as="geometry">
            <mxPoint x="720" y="2324" as="targetPoint" />
            <Array as="points">
              <mxPoint x="350" y="2274" />
              <mxPoint x="665" y="2274" />
            </Array>
          </mxGeometry>
        </mxCell>
        <mxCell id="SMSk38Dg5xrXoP6J3pRU-133" style="edgeStyle=orthogonalEdgeStyle;rounded=0;orthogonalLoop=1;jettySize=auto;html=1;entryX=0.5;entryY=0;entryDx=0;entryDy=0;entryPerimeter=0;" parent="1" target="SMSk38Dg5xrXoP6J3pRU-26" edge="1">
          <mxGeometry relative="1" as="geometry">
            <mxPoint x="295" y="2214" as="sourcePoint" />
            <mxPoint x="295" y="2244" as="targetPoint" />
            <Array as="points" />
          </mxGeometry>
        </mxCell>
        <mxCell id="SMSk38Dg5xrXoP6J3pRU-147" style="edgeStyle=orthogonalEdgeStyle;rounded=0;orthogonalLoop=1;jettySize=auto;html=1;entryX=0.5;entryY=0;entryDx=0;entryDy=0;entryPerimeter=0;" parent="1" source="SMSk38Dg5xrXoP6J3pRU-109" target="SMSk38Dg5xrXoP6J3pRU-151" edge="1">
          <mxGeometry relative="1" as="geometry">
            <mxPoint x="600" y="2070" as="targetPoint" />
            <Array as="points">
              <mxPoint x="1114" y="2070" />
              <mxPoint x="135" y="2070" />
            </Array>
          </mxGeometry>
        </mxCell>
        <mxCell id="SMSk38Dg5xrXoP6J3pRU-157" style="edgeStyle=orthogonalEdgeStyle;rounded=0;orthogonalLoop=1;jettySize=auto;html=1;exitX=0.5;exitY=1;exitDx=0;exitDy=0;exitPerimeter=0;entryX=0;entryY=0.5;entryDx=0;entryDy=0;entryPerimeter=0;" parent="1" source="SMSk38Dg5xrXoP6J3pRU-28" target="SMSk38Dg5xrXoP6J3pRU-136" edge="1">
          <mxGeometry relative="1" as="geometry">
            <Array as="points">
              <mxPoint x="85" y="2324" />
              <mxPoint x="860" y="2324" />
              <mxPoint x="860" y="2279" />
            </Array>
          </mxGeometry>
        </mxCell>
        <mxCell id="SMSk38Dg5xrXoP6J3pRU-191" style="edgeStyle=orthogonalEdgeStyle;rounded=0;orthogonalLoop=1;jettySize=auto;html=1;entryX=1;entryY=0.5;entryDx=0;entryDy=0;entryPerimeter=0;" parent="1" source="SMSk38Dg5xrXoP6J3pRU-140" target="SMSk38Dg5xrXoP6J3pRU-160" edge="1">
          <mxGeometry relative="1" as="geometry">
            <Array as="points">
              <mxPoint x="1119" y="2620" />
            </Array>
          </mxGeometry>
        </mxCell>
        <mxCell id="SMSk38Dg5xrXoP6J3pRU-195" value="" style="ellipse;html=1;shape=endState;fillColor=#000000;strokeColor=#ff0000;" parent="1" vertex="1">
          <mxGeometry x="383.45" y="2926" width="30" height="30" as="geometry" />
        </mxCell>
        <mxCell id="SMSk38Dg5xrXoP6J3pRU-196" style="edgeStyle=orthogonalEdgeStyle;rounded=0;orthogonalLoop=1;jettySize=auto;html=1;endArrow=open;endFill=0;exitX=0.5;exitY=1;exitDx=0;exitDy=0;exitPerimeter=0;strokeColor=#FF0000;" parent="1" target="SMSk38Dg5xrXoP6J3pRU-195" edge="1">
          <mxGeometry relative="1" as="geometry">
            <mxPoint x="398" y="2850" as="sourcePoint" />
          </mxGeometry>
        </mxCell>
        <mxCell id="6lrpFn_9t4CuSeWkkYaP-3" style="edgeStyle=orthogonalEdgeStyle;rounded=0;orthogonalLoop=1;jettySize=auto;html=1;entryX=0;entryY=0.5;entryDx=0;entryDy=0;entryPerimeter=0;" edge="1" parent="1" source="-LpXlav8uHPvm0gaR7sH-255" target="SMSk38Dg5xrXoP6J3pRU-1">
          <mxGeometry relative="1" as="geometry">
            <Array as="points">
              <mxPoint x="273" y="510" />
            </Array>
          </mxGeometry>
        </mxCell>
        <mxCell id="6lrpFn_9t4CuSeWkkYaP-4" style="edgeStyle=orthogonalEdgeStyle;rounded=0;orthogonalLoop=1;jettySize=auto;html=1;entryX=0.5;entryY=0;entryDx=0;entryDy=0;entryPerimeter=0;exitX=1;exitY=0.5;exitDx=0;exitDy=0;exitPerimeter=0;" edge="1" parent="1" source="SMSk38Dg5xrXoP6J3pRU-89" target="SMSk38Dg5xrXoP6J3pRU-95">
          <mxGeometry relative="1" as="geometry">
            <Array as="points">
              <mxPoint x="290" y="1593" />
              <mxPoint x="290" y="1440" />
              <mxPoint x="1355" y="1440" />
            </Array>
          </mxGeometry>
        </mxCell>
        <mxCell id="6lrpFn_9t4CuSeWkkYaP-5" style="edgeStyle=orthogonalEdgeStyle;rounded=0;orthogonalLoop=1;jettySize=auto;html=1;entryX=0;entryY=0.5;entryDx=0;entryDy=0;entryPerimeter=0;" edge="1" parent="1" source="SMSk38Dg5xrXoP6J3pRU-90" target="SMSk38Dg5xrXoP6J3pRU-94">
          <mxGeometry relative="1" as="geometry">
            <Array as="points">
              <mxPoint x="-15" y="1660" />
              <mxPoint x="468" y="1660" />
              <mxPoint x="468" y="1485" />
            </Array>
          </mxGeometry>
        </mxCell>
        <mxCell id="6lrpFn_9t4CuSeWkkYaP-6" style="edgeStyle=orthogonalEdgeStyle;rounded=0;orthogonalLoop=1;jettySize=auto;html=1;entryX=1;entryY=0.5;entryDx=0;entryDy=0;entryPerimeter=0;exitX=1;exitY=0.5;exitDx=0;exitDy=0;exitPerimeter=0;" edge="1" parent="1" source="SMSk38Dg5xrXoP6J3pRU-49" target="SMSk38Dg5xrXoP6J3pRU-160">
          <mxGeometry relative="1" as="geometry">
            <Array as="points">
              <mxPoint x="830" y="2274" />
              <mxPoint x="830" y="2220" />
              <mxPoint x="1220" y="2220" />
              <mxPoint x="1220" y="2620" />
            </Array>
          </mxGeometry>
        </mxCell>
      </root>
    </mxGraphModel>
  </diagram>
</mxfile>
